<svg xmlns="http://www.w3.org/2000/svg" xmlns:xlink="http://www.w3.org/1999/xlink" version="1.1" width="300" height="300" viewBox="0 0 1000 1000" xml:space="preserve">
<desc>Created with Fabric.js 3.5.0</desc>
<defs>
</defs>
<rect x="0" y="0" width="100%" height="100%" fill="rgba(255,255,255,0)"/>
<g transform="matrix(2.4445 0 0 2.4445 293.0361 439.2096)" id="575790">
<g style="" vector-effect="non-scaling-stroke">
		<g transform="matrix(1 0 0 1 75.945 192.935)" id="freepik--Character--inject-64">
<polygon style="stroke: rgb(38,50,56); stroke-width: 1; stroke-dasharray: none; stroke-linecap: butt; stroke-dashoffset: 0; stroke-linejoin: miter; stroke-miterlimit: 10; is-custom-font: none; font-file-url: none; fill: rgb(38,50,56); fill-rule: nonzero; opacity: 1;" points="75.095,33.315 69.315,-33.315 -67.535,-33.315 -75.095,33.315 75.095,33.315 "/>
</g>
		<g transform="matrix(1 0 0 1 77.7778 64.2293)" id="freepik--Character--inject-64">
<path style="stroke: rgb(38,50,56); stroke-width: 1; stroke-dasharray: none; stroke-linecap: butt; stroke-dashoffset: 0; stroke-linejoin: miter; stroke-miterlimit: 10; is-custom-font: none; font-file-url: none; fill: rgb(104,130,193); fill-rule: nonzero; opacity: 1;" transform=" translate(-327.7778, -314.2294)" d="M 317.22 207.67 s -40 11 -57.5 24.24 s -29.6 26.78 -26.78 52.43 s 21.14 95.83 21.14 95.83 s -2.54 28.47 -2.54 30.16 s -0.28 6.48 5.92 6.76 s 80.61 3.39 97.24 3.67 s 38.62 -1.41 41.15 -3.38 a 11.76 11.76 0 0 0 4.23 -8.46 c 0.28 -3.38 3.1 -44.82 3.1 -44.82 l 0.28 -18.6 s 18.33 -60.88 19.45 -80.61 s -6.2 -26.21 -14.37 -32.41 s -33.61 -16.7 -47.35 -20.86 S 317.22 207.67 317.22 207.67 Z" stroke-linecap="round"/>
</g>
		<g transform="matrix(1 0 0 1 72.2 105.625)" id="freepik--Character--inject-64">
<path style="stroke: rgb(38,50,56); stroke-width: 1; stroke-dasharray: none; stroke-linecap: butt; stroke-dashoffset: 0; stroke-linejoin: miter; stroke-miterlimit: 10; is-custom-font: none; font-file-url: none; fill: none; fill-rule: nonzero; opacity: 1;" transform=" translate(-322.2, -355.625)" d="M 327.09 302.27 c -2 27.45 -5.66 78 -5.34 86.71 c 0.45 12 -4.44 15.55 -4.44 20" stroke-linecap="round"/>
</g>
		<g transform="matrix(1 0 0 1 77.965 40.59)" id="freepik--Character--inject-64">
<path style="stroke: rgb(38,50,56); stroke-width: 1; stroke-dasharray: none; stroke-linecap: butt; stroke-dashoffset: 0; stroke-linejoin: miter; stroke-miterlimit: 10; is-custom-font: none; font-file-url: none; fill: none; fill-rule: nonzero; opacity: 1;" transform=" translate(-327.965, -290.59)" d="M 328.42 284.56 s -0.36 4.67 -0.91 12.06" stroke-linecap="round"/>
</g>
		<g transform="matrix(1 0 0 1 104.725 84.92)" id="freepik--Character--inject-64">
<polygon style="stroke: rgb(38,50,56); stroke-width: 1; stroke-dasharray: none; stroke-linecap: butt; stroke-dashoffset: 0; stroke-linejoin: miter; stroke-miterlimit: 10; is-custom-font: none; font-file-url: none; fill: rgb(38,50,56); fill-rule: nonzero; opacity: 1;" points="-8.445,-15.1 -5.885,15.1 8.445,14.08 -8.445,-15.1 "/>
</g>
		<g transform="matrix(1 0 0 1 117.52 120.6224)" id="freepik--Character--inject-64">
<path style="stroke: rgb(38,50,56); stroke-width: 1; stroke-dasharray: none; stroke-linecap: butt; stroke-dashoffset: 0; stroke-linejoin: miter; stroke-miterlimit: 10; is-custom-font: none; font-file-url: none; fill: rgb(38,50,56); fill-rule: nonzero; opacity: 1;" transform=" translate(-367.52, -370.6225)" d="M 332.7 372.48 s 35 -5.5 37.63 -4.92 s 20.55 9.26 23.16 9.84 a 24.34 24.34 0 0 1 4.92 1.74 l 3.93 3.29 L 401 372.48 s -5.21 -6.37 -16.79 -11 s -17.37 -2 -20 -1.15 S 332.7 372.48 332.7 372.48 Z" stroke-linecap="round"/>
</g>
		<g transform="matrix(1 0 0 1 76.4954 115.5024)" id="freepik--Character--inject-64">
<path style="stroke: rgb(38,50,56); stroke-width: 1; stroke-dasharray: none; stroke-linecap: butt; stroke-dashoffset: 0; stroke-linejoin: miter; stroke-miterlimit: 10; is-custom-font: none; font-file-url: none; fill: rgb(255,255,255); fill-rule: nonzero; opacity: 1;" transform=" translate(-326.4954, -365.5024)" d="M 278.88 346.07 l 91 -0.29 s 29.32 -2.81 30.44 -3.1 s 12.69 2.82 13.82 3.67 s 1.12 3.38 0.56 5.92 l -0.56 2.53 a 53.38 53.38 0 0 1 0.84 6.49 c 0 2 -2.25 2.53 -2.54 3.38 s 1.7 3.94 -0.56 5.92 l -2.25 2 s -0.29 5.36 -1.41 6.77 s -4.51 3.94 -5.92 3.1 s -0.85 -3.1 -0.85 -4.51 s -0.56 -2.82 -2.25 -2.82 s -2 1.41 -10.71 -0.85 s -18.32 -9.86 -19.17 -10.15 s -77.23 20.3 -99.78 23.12 s -24.52 -0.28 -25.37 -4 s -2.25 -12.4 -2.25 -12.4 l -4 -17.19 Z" stroke-linecap="round"/>
</g>
		<g transform="matrix(1 0 0 1 86.2375 -23.2364)" id="freepik--Character--inject-64">
<path style="stroke: rgb(38,50,56); stroke-width: 1; stroke-dasharray: none; stroke-linecap: butt; stroke-dashoffset: 0; stroke-linejoin: miter; stroke-miterlimit: 10; is-custom-font: none; font-file-url: none; fill: rgb(104,130,193); fill-rule: nonzero; opacity: 1;" transform=" translate(-336.2375, -226.7636)" d="M 338.05 240.71 s 4.71 -5 7.68 -2.73 s 5.69 14.11 9.4 13.12 s 11.14 -24 11.14 -33.16 s -6.44 -14.6 -7.92 -15.1 s -39.35 -1 -43.81 0.75 s -6.18 17.32 -7.91 26.72 s 2.22 11.63 4.7 10.4 s 12.12 -5.2 14.35 -5.2 S 338.05 240.71 338.05 240.71 Z" stroke-linecap="round"/>
</g>
		<g transform="matrix(1 0 0 1 88.2 -31.9968)" id="freepik--Character--inject-64">
<path style="stroke: rgb(38,50,56); stroke-width: 1; stroke-dasharray: none; stroke-linecap: butt; stroke-dashoffset: 0; stroke-linejoin: miter; stroke-miterlimit: 10; is-custom-font: none; font-file-url: none; fill: rgb(255,255,255); fill-rule: nonzero; opacity: 1;" transform=" translate(-338.2, -218.0032)" d="M 363.4 188.54 s -3.55 17.54 -4.93 21.87 s -11.43 17.54 -14 20.3 s -10.05 16.35 -12 16.75 S 325 229.33 325 229.33 s -7.1 -12.22 -8.48 -15.37 S 313 201.55 313 201.55 s 11.62 10 24 7.88 s 18.71 -14.58 18.71 -14.58 Z" stroke-linecap="round"/>
</g>
		<g transform="matrix(1 0 0 1 62.2889 -88.0795)" id="freepik--Character--inject-64">
<path style="stroke: rgb(38,50,56); stroke-width: 1; stroke-dasharray: none; stroke-linecap: butt; stroke-dashoffset: 0; stroke-linejoin: miter; stroke-miterlimit: 10; is-custom-font: none; font-file-url: none; fill: rgb(255,255,255); fill-rule: nonzero; opacity: 1;" transform=" translate(-312.2888, -161.9205)" d="M 315.29 153.6 s -3.47 -3.72 -5.45 2 s 2 15.83 2 15.83 Z" stroke-linecap="round"/>
</g>
		<g transform="matrix(1 0 0 1 98.0421 -83.8075)" id="freepik--Character--inject-64">
<path style="stroke: rgb(38,50,56); stroke-width: 1; stroke-dasharray: none; stroke-linecap: butt; stroke-dashoffset: 0; stroke-linejoin: miter; stroke-miterlimit: 10; is-custom-font: none; font-file-url: none; fill: rgb(255,255,255); fill-rule: nonzero; opacity: 1;" transform=" translate(-348.042, -166.1925)" d="M 315.91 142 s -5.71 40.59 -5.71 43 s -1.58 10.24 0.79 15.37 s 9.45 11.42 15.17 12.21 s 16.94 -0.39 23.25 -5.32 S 363 191.7 363 191.7 s 7.89 -1.19 13 -3.35 s 9.06 -7.1 8.87 -12.22 a 17.18 17.18 0 0 0 -3.35 -9.06 l -3 -5.52 l 7.88 -14.78 s -4.53 -8.47 -19.11 -16.55 s -27.59 -10.64 -33.69 -10.64 s -13.8 2.56 -16 7.49 S 315.91 142 315.91 142 Z" stroke-linecap="round"/>
</g>
		<g transform="matrix(1 0 0 1 100.304 -112.8406)" id="freepik--Character--inject-64">
<path style="stroke: rgb(38,50,56); stroke-width: 1; stroke-dasharray: none; stroke-linecap: butt; stroke-dashoffset: 0; stroke-linejoin: miter; stroke-miterlimit: 10; is-custom-font: none; font-file-url: none; fill: rgb(38,50,56); fill-rule: nonzero; opacity: 1;" transform=" translate(-350.304, -137.1595)" d="M 334.63 122.14 s 11.23 18.52 19.71 17.74 s 11 -4.73 11 -4.73 l 5.71 7.68 s -6.1 2.56 -4.92 5.72 s 6.5 10.24 6.5 10.24 l -4.34 18.52 s 3.35 0.59 3.95 -0.59 s 3.54 -8.47 3.54 -8.47 a 10.22 10.22 0 0 1 2.56 -1.18 a 7.52 7.52 0 0 1 3.16 0 s 2.16 -7.29 3 -7.49 s 8.67 -2.37 11.63 -10.05 s -1.58 -19.9 -11.83 -29.55 s -31.92 -12.22 -33.1 -14 s 5.52 0.78 4.14 -3.16 s -10.05 -9.06 -21.08 -3.54 s -9.46 11.62 -8.28 13.59 l 1.18 2 s -9.26 -3.15 -15.76 0.79 s -9.65 11.82 -6.7 12.61 s 6.7 -1 6.7 -1 s -3.94 6.5 -2.76 7.88 s 7.29 6.89 7.29 6.89 s 2.37 -13.79 7.29 -15.76 S 334.63 122.14 334.63 122.14 Z" stroke-linecap="round"/>
</g>
		<g transform="matrix(1 0 0 1 78.13 -86.875)" id="freepik--Character--inject-64">
<polyline style="stroke: rgb(38,50,56); stroke-width: 1; stroke-dasharray: none; stroke-linecap: butt; stroke-dashoffset: 0; stroke-linejoin: miter; stroke-miterlimit: 10; is-custom-font: none; font-file-url: none; fill: none; fill-rule: nonzero; opacity: 1;" points="2.95,-14.385 4.73,-8.665 -5.32,10.245 5.32,14.385 "/>
</g>
		<g transform="matrix(1 0 0 1 73.7697 -104.0518)" id="freepik--Character--inject-64">
<path style="stroke: rgb(38,50,56); stroke-width: 1; stroke-dasharray: none; stroke-linecap: butt; stroke-dashoffset: 0; stroke-linejoin: miter; stroke-miterlimit: 10; is-custom-font: none; font-file-url: none; fill: rgb(38,50,56); fill-rule: nonzero; opacity: 1;" transform=" translate(-323.7697, -145.9482)" d="M 329.11 146.57 s -4.72 -3.74 -8.67 -2.75 s -1.57 1.57 1.19 2.56 S 329.9 149.92 329.11 146.57 Z" stroke-linecap="round"/>
</g>
		<g transform="matrix(1 0 0 1 99.5151 -102.2118)" id="freepik--Character--inject-64">
<path style="stroke: rgb(38,50,56); stroke-width: 1; stroke-dasharray: none; stroke-linecap: butt; stroke-dashoffset: 0; stroke-linejoin: miter; stroke-miterlimit: 10; is-custom-font: none; font-file-url: none; fill: rgb(38,50,56); fill-rule: nonzero; opacity: 1;" transform=" translate(-349.5151, -147.7882)" d="M 343.7 145.79 s -4.54 1.18 -2.37 2.16 s 8.67 -1 11.23 0 s 5.91 4.34 5.72 2.76 A 8 8 0 0 0 353 144.8 C 349.41 143.62 343.7 145.79 343.7 145.79 Z" stroke-linecap="round"/>
</g>
		<g transform="matrix(1 0 0 1 74.9744 -95.0538)" id="freepik--Character--inject-64">
<path style="stroke: none; stroke-width: 1; stroke-dasharray: none; stroke-linecap: butt; stroke-dashoffset: 0; stroke-linejoin: miter; stroke-miterlimit: 4; is-custom-font: none; font-file-url: none; fill: rgb(38,50,56); fill-rule: nonzero; opacity: 1;" transform=" translate(-324.9743, -154.9462)" d="M 326.51 155.32 c -0.35 1.43 -1.31 2.42 -2.16 2.21 s -1.25 -1.52 -0.91 -2.95 s 1.32 -2.42 2.16 -2.22 S 326.85 153.89 326.51 155.32 Z" stroke-linecap="round"/>
</g>
		<g transform="matrix(1 0 0 1 96.4636 -89.4567)" id="freepik--Character--inject-64">
<path style="stroke: none; stroke-width: 1; stroke-dasharray: none; stroke-linecap: butt; stroke-dashoffset: 0; stroke-linejoin: miter; stroke-miterlimit: 4; is-custom-font: none; font-file-url: none; fill: rgb(38,50,56); fill-rule: nonzero; opacity: 1;" transform=" translate(-346.4636, -160.5433)" d="M 348 160.94 c -0.35 1.42 -1.32 2.41 -2.16 2.21 s -1.25 -1.53 -0.91 -3 s 1.31 -2.42 2.16 -2.21 S 348.33 159.51 348 160.94 Z" stroke-linecap="round"/>
</g>
		<g transform="matrix(1 0 0 1 70.74 -67.47)" id="freepik--Character--inject-64">
<line style="stroke: rgb(38,50,56); stroke-width: 1; stroke-dasharray: none; stroke-linecap: butt; stroke-dashoffset: 0; stroke-linejoin: miter; stroke-miterlimit: 10; is-custom-font: none; font-file-url: none; fill: none; fill-rule: nonzero; opacity: 1;" x1="-4.039999999999992" y1="-2.6599999999999966" x2="4.039999999999992" y2="2.6599999999999966"/>
</g>
		<g transform="matrix(1 0 0 1 152.9077 46.88)" id="freepik--Character--inject-64">
<path style="stroke: rgb(38,50,56); stroke-width: 1; stroke-dasharray: none; stroke-linecap: butt; stroke-dashoffset: 0; stroke-linejoin: miter; stroke-miterlimit: 10; is-custom-font: none; font-file-url: none; fill: rgb(104,130,193); fill-rule: nonzero; opacity: 1;" transform=" translate(-402.9077, -296.88)" d="M 399.8 227.68 s 27.9 10.72 33.26 26.78 s -1.41 36.36 -4.23 44.82 s -20.29 41.43 -23.11 49.32 s -7.05 17.48 -7.05 17.48 S 394.73 342.4 384 327.75 s -13.25 -27.91 -13.25 -27.91 s 19.45 -34.39 24.52 -45.1" stroke-linecap="round"/>
</g>
		<g transform="matrix(1 0 0 1 142.2228 81.4004)" id="freepik--Character--inject-64">
<path style="stroke: rgb(38,50,56); stroke-width: 1; stroke-dasharray: none; stroke-linecap: butt; stroke-dashoffset: 0; stroke-linejoin: miter; stroke-miterlimit: 10; is-custom-font: none; font-file-url: none; fill: rgb(104,130,193); fill-rule: nonzero; opacity: 1;" transform=" translate(-392.2227, -331.4004)" d="M 373.73 293.88 s 5.71 -2.85 7.61 -1.9 s 26.33 14 29.5 28.87 a 50.55 50.55 0 0 1 -4.44 33 c -2.86 5.4 -8.25 15.86 -12.37 17.13 s -7.62 -32.67 -16.18 -50.43 S 373.73 293.88 373.73 293.88 Z" stroke-linecap="round"/>
</g>
		<g transform="matrix(1 0 0 1 136.695 15.595)" id="freepik--Character--inject-64">
<path style="stroke: rgb(38,50,56); stroke-width: 1; stroke-dasharray: none; stroke-linecap: butt; stroke-dashoffset: 0; stroke-linejoin: miter; stroke-miterlimit: 10; is-custom-font: none; font-file-url: none; fill: none; fill-rule: nonzero; opacity: 1;" transform=" translate(-386.695, -265.595)" d="M 383.17 277.57 s 5.07 -17.19 7.05 -23.95" stroke-linecap="round"/>
</g>
		<g transform="matrix(1 0 0 1 100.6167 30.3268)" id="freepik--Character--inject-64">
<path style="stroke: rgb(38,50,56); stroke-width: 1; stroke-dasharray: none; stroke-linecap: butt; stroke-dashoffset: 0; stroke-linejoin: miter; stroke-miterlimit: 10; is-custom-font: none; font-file-url: none; fill: rgb(255,255,255); fill-rule: nonzero; opacity: 1;" transform=" translate(-350.6168, -280.3268)" d="M 332.27 216.52 s -7.88 -11 -14 -18.32 s -12.42 -11.63 -14.58 -11 s -3 2.76 -1.58 5.32 s 7.88 8.28 9.06 9.86 s 3 7.29 3 7.29 s -5.71 0.39 -6.7 1.57 a 26.41 26.41 0 0 0 -2.36 4.34 a 8.37 8.37 0 0 0 -3 2.56 a 7 7 0 0 0 -1.18 2.76 c -0.2 0.79 -3 2.17 -2.76 5.71 s 3.55 8.67 4.73 11 s 9.85 12.8 11.43 14.58 s 10.64 17.53 13 22.85 s 25.22 67 31.92 76.26 s 19.11 18.12 25.81 21.28 s 11.43 -2.17 14.58 -8.87 s 5.91 -20.1 -0.19 -35.47 s -18.13 -28.57 -27.39 -36.45 s -26.6 -27.58 -28.57 -31.13 S 339 249.23 339 249.23 s 5.12 -15 5.51 -18.52 s -1.57 -9.85 -1 -12.61 s 2.95 -8.28 3.94 -10.64 s 4.33 -6.31 2.56 -8.08 s -9.06 0.39 -11.62 4.53 A 120.38 120.38 0 0 0 332.27 216.52 Z" stroke-linecap="round"/>
</g>
		<g transform="matrix(1 0 0 1 21.87 6.545)" id="freepik--Character--inject-64">
<path style="stroke: rgb(38,50,56); stroke-width: 1; stroke-dasharray: none; stroke-linecap: butt; stroke-dashoffset: 0; stroke-linejoin: miter; stroke-miterlimit: 10; is-custom-font: none; font-file-url: none; fill: rgb(104,130,193); fill-rule: nonzero; opacity: 1;" transform=" translate(-271.87, -256.545)" d="M 271.37 259.19 c 0.59 -3.13 1 -5.29 1 -5.29" stroke-linecap="round"/>
</g>
		<g transform="matrix(1 0 0 1 2.1759 34.92)" id="freepik--Character--inject-64">
<path style="stroke: rgb(38,50,56); stroke-width: 1; stroke-dasharray: none; stroke-linecap: butt; stroke-dashoffset: 0; stroke-linejoin: miter; stroke-miterlimit: 10; is-custom-font: none; font-file-url: none; fill: rgb(104,130,193); fill-rule: nonzero; opacity: 1;" transform=" translate(-252.176, -284.92)" d="M 269.58 226.84 s -14.94 2 -30.44 18.6 s -8.74 56.09 -7.33 64.27 S 235.48 343 235.48 343 l 39.74 -13.25 s -6.48 -44.25 -7.05 -48.2 c -0.28 -2 0.8 -9 1.94 -15.5" stroke-linecap="round"/>
</g>
		<g transform="matrix(1 0 0 1 4.9751 91.8729)" id="freepik--Character--inject-64">
<path style="stroke: rgb(38,50,56); stroke-width: 1; stroke-dasharray: none; stroke-linecap: butt; stroke-dashoffset: 0; stroke-linejoin: miter; stroke-miterlimit: 10; is-custom-font: none; font-file-url: none; fill: rgb(104,130,193); fill-rule: nonzero; opacity: 1;" transform=" translate(-254.9751, -341.8729)" d="M 231.53 334.23 s 3.95 21.14 5.92 22.26 s 32.69 -7.32 36.08 -7.89 s 5.35 0.28 5.35 -2.53 s -2.82 -16.07 -4.51 -18.32 s -38.33 2.53 -41.43 3.38 S 231.53 334.23 231.53 334.23 Z" stroke-linecap="round"/>
</g>
		<g transform="matrix(1 0 0 1 14.165 66.895)" id="freepik--Character--inject-64">
<path style="stroke: rgb(38,50,56); stroke-width: 1; stroke-dasharray: none; stroke-linecap: butt; stroke-dashoffset: 0; stroke-linejoin: miter; stroke-miterlimit: 10; is-custom-font: none; font-file-url: none; fill: none; fill-rule: nonzero; opacity: 1;" transform=" translate(-264.165, -316.895)" d="M 254 317.89 a 159.92 159.92 0 0 1 20.33 9.86 s -9.58 -18 -13.53 -21.71" stroke-linecap="round"/>
</g>
		<g transform="matrix(1 0 0 1 0.395 66.515)" id="freepik--Character--inject-64">
<path style="stroke: rgb(38,50,56); stroke-width: 1; stroke-dasharray: none; stroke-linecap: butt; stroke-dashoffset: 0; stroke-linejoin: miter; stroke-miterlimit: 10; is-custom-font: none; font-file-url: none; fill: none; fill-rule: nonzero; opacity: 1;" transform=" translate(-250.395, -316.515)" d="M 248.72 315.91 c 1.13 0.39 2.25 0.8 3.35 1.21" stroke-linecap="round"/>
</g>
		<g transform="matrix(1 0 0 1 100.16 154.04)" id="freepik--Character--inject-64">
<path style="stroke: rgb(38,50,56); stroke-width: 1; stroke-dasharray: none; stroke-linecap: butt; stroke-dashoffset: 0; stroke-linejoin: miter; stroke-miterlimit: 10; is-custom-font: none; font-file-url: none; fill: none; fill-rule: nonzero; opacity: 1;" transform=" translate(-350.16, -404.04)" d="M 341.16 408.18 c 7.29 -2.6 14 -5.46 18 -8.28" stroke-linecap="round"/>
</g>
		<g transform="matrix(1 0 0 1 71.965 163.895)" id="freepik--Character--inject-64">
<path style="stroke: rgb(38,50,56); stroke-width: 1; stroke-dasharray: none; stroke-linecap: butt; stroke-dashoffset: 0; stroke-linejoin: miter; stroke-miterlimit: 10; is-custom-font: none; font-file-url: none; fill: none; fill-rule: nonzero; opacity: 1;" transform=" translate(-321.965, -413.895)" d="M 306.79 418.22 s 15.57 -3.69 30.35 -8.65" stroke-linecap="round"/>
</g>
		<g transform="matrix(1 0 0 1 107.43 154.67)" id="freepik--Character--inject-64">
<path style="stroke: rgb(38,50,56); stroke-width: 1; stroke-dasharray: none; stroke-linecap: butt; stroke-dashoffset: 0; stroke-linejoin: miter; stroke-miterlimit: 10; is-custom-font: none; font-file-url: none; fill: none; fill-rule: nonzero; opacity: 1;" transform=" translate(-357.43, -404.67)" d="M 372.28 398.73 c -7.66 3.82 -19.79 9.4 -29.7 11.88" stroke-linecap="round"/>
</g>
		<g transform="matrix(1 0 0 1 127.7 145.935)" id="freepik--Character--inject-64">
<path style="stroke: rgb(38,50,56); stroke-width: 1; stroke-dasharray: none; stroke-linecap: butt; stroke-dashoffset: 0; stroke-linejoin: miter; stroke-miterlimit: 10; is-custom-font: none; font-file-url: none; fill: none; fill-rule: nonzero; opacity: 1;" transform=" translate(-377.7, -395.935)" d="M 379.79 394.83 s -1.57 0.87 -4.18 2.21" stroke-linecap="round"/>
</g>
</g>
</g>
</svg>