<svg xmlns="http://www.w3.org/2000/svg" xmlns:xlink="http://www.w3.org/1999/xlink" aria-hidden="true" role="img" class="iconify iconify--logos" width="35.9" height="32" preserveAspectRatio="xMidYMid meet" viewBox="0 0 256 228"><path fill="#00d8ff" d="M 210.5 73.8 a 171.5 171.5 0 0 0 -8.2 -2.6 c 0.5 -1.9 0.9 -3.8 1.3 -5.6 c 6.2 -30.3 2.2 -54.7 -11.8 -62.7 c -13.4 -7.7 -35.2 0.3 -57.3 19.5 a 171.2 171.2 0 0 0 -6.4 5.8 a 155.9 155.9 0 0 0 -4.2 -3.9 C 100.8 3.8 77.6 -4.8 63.7 3.2 C 50.3 11 46.4 33.9 52 62.6 a 171 171 0 0 0 1.9 8.5 c -3.3 0.9 -6.4 1.9 -9.5 3 C 17.3 83.5 0 98.3 0 113.7 c 0 15.9 18.6 31.8 46.8 41.4 a 145.5 145.5 0 0 0 6.9 2.2 a 167.5 167.5 0 0 0 -2 9.1 c -5.4 28.2 -1.2 50.6 12.1 58.3 c 13.7 7.9 36.8 -0.2 59.3 -19.9 a 145.6 145.6 0 0 0 5.3 -4.9 a 168.1 168.1 0 0 0 6.9 6.3 c 21.8 18.7 43.2 26.3 56.5 18.6 c 13.7 -7.9 18.2 -32 12.4 -61.3 a 145 145 0 0 0 -1.5 -6.8 c 1.6 -0.5 3.2 -1 4.8 -1.5 c 29.3 -9.7 48.4 -25.4 48.4 -41.5 c 0 -15.4 -17.9 -30.3 -45.5 -39.8 Z m -6.4 71 c -1.4 0.5 -2.8 0.9 -4.3 1.3 c -3.2 -10.3 -7.6 -21.2 -13 -32.4 c 5.1 -11 9.3 -21.8 12.5 -32 c 2.6 0.8 5.2 1.6 7.6 2.4 c 23.7 8.2 38.1 20.2 38.1 29.5 c 0 9.9 -15.6 22.7 -40.9 31.1 Z m -10.5 20.8 c 2.6 12.9 2.9 24.6 1.2 33.8 c -1.5 8.2 -4.6 13.7 -8.4 15.9 c -8.1 4.7 -25.3 -1.4 -43.9 -17.4 a 156.7 156.7 0 0 1 -6.4 -5.9 c 7.2 -7.9 14.4 -17.1 21.5 -27.2 c 12.4 -1.1 24.1 -2.9 34.7 -5.3 a 134.2 134.2 0 0 1 1.4 6.2 Z M 87.3 214.5 c -7.9 2.8 -14.2 2.9 -18 0.7 c -8.1 -4.7 -11.4 -22.6 -6.9 -46.8 a 156.9 156.9 0 0 1 1.9 -8.5 c 10.5 2.3 22.1 4 34.5 5 c 7.1 10 14.5 19.1 22 27.1 a 134.7 134.7 0 0 1 -4.9 4.5 c -9.9 8.7 -19.9 14.8 -28.7 17.9 Z M 50.4 144.7 c -12.5 -4.3 -22.8 -9.8 -29.9 -15.9 c -6.3 -5.4 -9.6 -10.8 -9.6 -15.2 c 0 -9.3 13.9 -21.2 37.1 -29.3 c 2.8 -1 5.8 -1.9 8.8 -2.8 c 3.2 10.4 7.4 21.3 12.5 32.3 c -5.1 11.2 -9.4 22.2 -12.6 32.8 a 134.7 134.7 0 0 1 -6.3 -2 Z m 12.4 -84.3 c -4.8 -24.6 -1.6 -43.1 6.4 -47.8 c 8.6 -5 27.5 2.1 47.5 19.8 a 144.3 144.3 0 0 1 3.8 3.5 c -7.4 8 -14.8 17.1 -21.8 27 c -12 1.1 -23.6 2.9 -34.2 5.3 a 160.3 160.3 0 0 1 -1.8 -7.9 Z m 110.4 27.3 a 347.8 347.8 0 0 0 -7.8 -12.8 c 8.2 1 16 2.4 23.3 4.1 c -2.2 7.1 -5 14.5 -8.2 22 a 381.2 381.2 0 0 0 -7.4 -13.3 Z m -45 -43.9 c 5 5.5 10.1 11.6 15.1 18.2 a 322 322 0 0 0 -30.3 0 c 5 -6.6 10.1 -12.7 15.2 -18.2 Z M 82.8 87.8 a 323.2 323.2 0 0 0 -7.2 13.2 c -3.2 -7.6 -5.9 -15 -8.1 -22.2 c 7.3 -1.6 15.1 -3 23.2 -4 a 321.5 321.5 0 0 0 -7.8 12.9 Z m 8.1 65.4 c -8.4 -0.9 -16.3 -2.2 -23.6 -3.8 c 2.3 -7.3 5 -14.9 8.3 -22.6 a 321.2 321.2 0 0 0 7.3 13.2 c 2.6 4.5 5.3 8.9 8 13.1 Z m 37.5 31 c -5.2 -5.6 -10.4 -11.8 -15.4 -18.4 c 4.9 0.2 9.9 0.3 15 0.3 c 5.2 0 10.4 -0.1 15.5 -0.3 c -5 6.8 -10 13 -15 18.5 Z m 52.2 -57.8 c 3.4 7.8 6.3 15.3 8.6 22.5 c -7.4 1.7 -15.4 3.1 -23.9 4.1 a 382.4 382.4 0 0 0 7.9 -13 a 347.4 347.4 0 0 0 7.4 -13.6 Z m -16.9 8.1 a 358.6 358.6 0 0 1 -12.3 19.8 a 329.4 329.4 0 0 1 -23.4 0.8 c -8 0 -15.7 -0.2 -23.2 -0.7 a 310.2 310.2 0 0 1 -12.5 -19.8 h 0 a 307.4 307.4 0 0 1 -10.9 -20.6 a 310.3 310.3 0 0 1 10.9 -20.6 l 0 0 a 307.3 307.3 0 0 1 12.4 -19.8 c 7.6 -0.6 15.4 -0.9 23.3 -0.9 H 128 c 7.9 0 15.7 0.3 23.4 0.9 a 329.4 329.4 0 0 1 12.3 19.7 a 358.5 358.5 0 0 1 11 20.5 a 329.5 329.5 0 0 1 -11 20.7 Z m 22.6 -122.1 c 8.6 4.9 11.9 24.9 6.5 51 c -0.3 1.7 -0.7 3.4 -1.1 5.1 c -10.6 -2.5 -22.2 -4.3 -34.2 -5.4 c -7 -10 -14.3 -19.1 -21.6 -27 a 160.8 160.8 0 0 1 5.9 -5.4 c 18.9 -16.4 36.6 -22.9 44.6 -18.3 Z M 128 90.8 c 12.6 0 22.9 10.2 22.9 22.9 s -10.2 22.9 -22.9 22.9 s -22.9 -10.2 -22.9 -22.9 s 10.2 -22.9 22.9 -22.9 Z"></path></svg>