<svg xmlns="http://www.w3.org/2000/svg" viewBox="0 0 500 500"><g id="freepik--background-simple--inject-29"><path d="M 458.5 325.5 s 51.1 -57.4 34.8 -157.3 s -99.7 -136.7 -155 -117.5 s -67.8 52.7 -113 71.8 s -131.1 6 -174 70.3 s 11.9 170.8 81.7 237.6 S 380.9 455.4 458.5 325.5 Z" style="fill: #7a92c6"></path><path d="M 458.5 325.5 s 51.1 -57.4 34.8 -157.3 s -99.7 -136.7 -155 -117.5 s -67.8 52.7 -113 71.8 s -131.1 6 -174 70.3 s 11.9 170.8 81.7 237.6 S 380.9 455.4 458.5 325.5 Z" style="fill: #ffffff; opacity: 0.7000000000000001"></path></g><g id="freepik--Character--inject-29"><path d="M 269.1 137.3 s -10.2 -2 -19.1 12.1 s -8.4 33 -7.8 51 s -0.5 41.3 -1 49.5 s -9.5 16.1 -9.5 16.1 l 127.5 3 C 354.5 254.6 349.1 240.5 342.9 226.7 C 333.1 204.9 324.7 169.9 324.7 169.9 s 12.5 2.8 11.4 -4.3 s -8.2 -15.2 -27.8 -25.3 S 275.7 130.5 269.1 137.3 Z" style="fill: #263238; stroke: #263238; stroke-miterlimit: 10"></path><polygon points="221.6,499.9 226.6,463.3 377.1,452.1 389.8,500.2 221.6,499.9" style="fill: #263238; stroke: #263238; stroke-miterlimit: 10"></polygon><path d="M 368.8 410.4 C 365.1 402.9 361.8 395.1 358.9 387.2 c 2.6 -6.4 11.6 -22.7 11.6 -22.7 l 5.3 -9.5 s -1 -2.9 -0.8 -10.7 C 375.2 340.3 375.1 336.3 374.7 332.3 s 5.6 -45.2 5.6 -51.5 s 0 -13.7 -1.6 -15.8 s -12.4 -9.5 -34.6 -16.6 s -29.6 -7.4 -31.2 -7.9 s -29.6 1.9 -29.6 1.9 s -43.8 7.4 -46 9.8 S 243.2 370.9 243.2 370.9 s -3.3 8.5 -4.1 14.9 c -3.7 10.6 -15.3 44.4 -16.6 60.6 c -1.6 19.3 -1.3 24.8 -1.3 24.8 s 34.9 15.8 52 19.3 s 32.2 6.3 32.2 6.3 l 5.8 -15.6 l 7.4 15.3 s 29.6 -11.1 39.9 -18.5 s 23.8 -24.6 23.8 -24.6 S 375.2 423.1 368.8 410.4 Z" style="fill: #7a92c6; stroke: #263238; stroke-miterlimit: 10"></path><path d="M 362.8 267.9 s -9.1 12 -11 18.1" style="fill: none; stroke: #263238; stroke-miterlimit: 10"></path><path d="M 321.3 391.6 s 13.1 2.9 15.6 4.9 s 12.4 4.9 16.7 4.9 C 357.2 401.2 360.8 400.9 364.4 400.3 l -6.8 -7.6 S 331.5 388.9 327.5 388.9 C 325.1 388.9 322.9 389.9 321.3 391.6 Z" style="fill: #263238; stroke: #263238; stroke-miterlimit: 10"></path><path d="M 309.6 462.4 c 0.5 5.4 0.9 9 0.9 9.4" style="fill: none; stroke: #263238; stroke-miterlimit: 10"></path><path d="M 302.9 397.4 s 4 38.5 6.2 60.1" style="fill: none; stroke: #263238; stroke-miterlimit: 10"></path><path d="M 309.6 334.2 c 0.1 1 0.3 1.9 0.4 2.6 c 1.1 5.5 -0.3 12.4 -2.9 14.3 s -5 10 -4 11.1" style="fill: none; stroke: #263238; stroke-miterlimit: 10"></path><path d="M 308.4 314.6 s 0.3 7.9 0.8 14.6" style="fill: none; stroke: #263238; stroke-miterlimit: 10"></path><path d="M 290.1 232.3 s -3.6 -0.2 -4.4 0.9 s -7.8 9.5 -8 11.3 s -0.7 29 -0.7 31.2 s 3.1 9.3 4.6 5.3 s 2.7 -9.1 4.2 -11.7 s 5.5 2.9 5.5 2.9 l 26.1 7.1 s 8.4 -4.9 10 -8 s 1.3 9.3 3.3 9.8 s 3.8 -2.9 1.8 -10.4 s -1.6 -21.9 -4.4 -30.6 s -4.9 -9.3 -9.5 -9.5 S 290.1 232.3 290.1 232.3 Z" style="fill: #7a92c6; stroke: #263238; stroke-miterlimit: 10"></path><path d="M 286.5 216.1 s 1.8 21 1.8 24.6 s -0.9 18.2 2.7 27.8 s 13.7 41.2 15.9 42.4 s 4.4 -1.8 8.4 -11.9 S 328.1 273.9 326.5 258.9 s -8.6 -44.7 -8.6 -44.7 Z" style="fill: #ffffff; stroke: #263238; stroke-miterlimit: 10"></path><polygon points="308.3,234.6 288.3,242.7 287.2,229.9 308.3,234.6" style="fill: #263238; stroke: #263238; stroke-miterlimit: 10"></polygon><path d="M 293.9 276.9 c 4.5 13.1 11.2 33.1 12.9 34 c 2.1 1.3 4.4 -1.8 8.4 -11.9 c 2.1 -5.4 5.5 -12 8.1 -19.3 C 313.7 283.9 302.6 282.9 293.9 276.9 Z" style="fill: #263238; stroke: #263238; stroke-miterlimit: 10"></path><path d="M 264.6 195.9 s 11.1 27.4 16 31.3 s 21.7 10.3 27.5 9.8 s 11.9 -4.3 13.5 -7.9 s 8.2 -13 7.1 -20.6 s -8.4 -35.5 -8.4 -35.5 S 305.5 170.9 295.2 167.4 s -16.1 -13 -16.1 -13 s -1.9 18.4 -6.3 28.3 S 264.6 195.9 264.6 195.9 Z" style="fill: #ffffff; stroke: #263238; stroke-miterlimit: 10"></path><path d="M 303.1 188.3 s 1.5 8.3 4.4 10 s 3.9 2.6 2.8 4.6 s -4.4 3 -5.2 3" style="fill: none; stroke: #263238; stroke-miterlimit: 10"></path><path d="M 294.1 210.1 s 6.5 6.3 13.1 5.2" style="fill: none; stroke: #263238; stroke-miterlimit: 10"></path><path d="M 278.2 189.3 s 7.2 -4.2 12.7 -2.1" style="fill: none; stroke: #263238; stroke-miterlimit: 10"></path><path d="M 303.6 187 s -1.7 -7.4 6.9 -9.4" style="fill: none; stroke: #263238; stroke-miterlimit: 10"></path><path d="M 294.3 195.9 c 0.6 1.8 0.3 3.5 -0.8 3.9 s -2.5 -0.7 -3.1 -2.5 s -0.3 -3.5 0.8 -3.9 S 293.7 194.1 294.3 195.9 Z" style="fill: #263238"></path><path d="M 314 189.1 c 0.6 1.8 0.3 3.5 -0.8 3.9 s -2.5 -0.7 -3.1 -2.5 s -0.3 -3.5 0.8 -3.9 S 313.4 187.3 314 189.1 Z" style="fill: #263238"></path><path d="M 264.6 195.9 l -4 11.3 s 4.3 6.2 6.8 7.3 s 5.3 -1.3 5.3 -1.3 Z" style="fill: #ffffff; stroke: #263238; stroke-miterlimit: 10"></path><path d="M 263.5 362.9 s 53.1 8.7 65 8.7 s 22.4 -0.5 23.8 -1.1 s 18 -2.1 19.3 0.3 s 0.8 6.9 0.8 6.9 C 373 380.3 373.2 383 373.1 385.7 C 373 387.8 372.3 389.9 371 391.7 C 371.7 393.1 371.5 394.6 370.5 395.7 c -1.6 2.1 -1.9 4 -4.8 4.5 s -9.5 -1.1 -10.6 -1.3 s -12.1 -1.6 -15.1 -3.2 C 338.1 394.6 336 393.6 333.8 392.8 C 331.6 392.3 329.4 392 327.2 391.8 S 275.4 394.9 267.8 394.4 s -12.4 -0.5 -12.4 -0.5 Z" style="fill: #ffffff; stroke: #263238; stroke-miterlimit: 10"></path><path d="M 338.4 352.2 s 4.3 18.8 8 24.3 s 11.8 13.7 19.1 10.9 s 9.3 -2.1 10.5 -15.7 s 0.9 -23.6 -1.1 -27.3 C 373.5 341.6 371.7 339.1 369.6 336.8 Z" style="fill: #7a92c6; stroke: #263238; stroke-miterlimit: 10"></path><path d="M 343.4 254.5 s -10 -8.7 -15 -12.7 C 323.1 237.5 318 232.9 313.2 227.9 c -3.6 -3.8 -5.7 -5.7 -6.1 -2.3 s 4.8 11.4 5.9 12.8 s 7.1 8.2 7.1 8.2 s -7.1 5 -8.9 6.4 s -1.8 3 -2.3 7.1 s 1.4 5.9 4.5 6.8 C 315.3 267.5 317.4 267.1 318.9 266 s 7.1 4.8 11.6 5.5 s 8.6 4.1 8.6 4.1 s -1.4 66 -1.6 67.6 s 9.5 1.3 18.7 -1.8 s 11.8 -6.6 11.8 -6.6 s -12 -56.8 -15 -64.8 S 346.8 256.5 343.4 254.5 Z" style="fill: #ffffff; stroke: #263238; stroke-miterlimit: 10"></path><path d="M 319 266 l -4.6 -3.8 s -0.2 1.6 -1.1 2.1" style="fill: #ffffff; stroke: #263238; stroke-miterlimit: 10"></path><path d="M 334.3 339 s 0.5 14.3 2.3 15.4 s 15.4 -2.1 22.5 -4.6 s 12.3 -5.5 12.5 -7.9 s -1.6 -8 -2.9 -11.1 s -3 -2.3 -3.8 -1.6 s -7.1 3 -16.8 5.5 S 334.1 336.3 334.3 339 Z" style="fill: #7a92c6; stroke: #263238; stroke-miterlimit: 10"></path><path d="M 246.6 309 c -0.3 -3.6 -0.6 -6.9 -0.8 -9.7" style="fill: #7a92c6; stroke: #263238; stroke-miterlimit: 10"></path><path d="M 251.9 249.4 s -27.2 1.6 -28.3 6.1 s -4.2 40.1 -5.3 75.3 s 0.8 60.8 3.2 61.5 s 29.6 0.8 29.6 0.8 l 3.4 -30.6 l -2.9 -4.5 s -2.8 -34.8 -4.6 -53.8" style="fill: #7a92c6; stroke: #263238; stroke-miterlimit: 10"></path><path d="M 249 356.6 s -5.3 34.6 -6.1 36.2 s -1.3 4.5 1.8 4.2 s 11.9 2.1 12.9 -0.3 s 9.5 -28.3 8.7 -32 s -4.5 -5 -5.8 -5.5 S 250.6 355.3 249 356.6 Z" style="fill: #7a92c6; stroke: #263238; stroke-miterlimit: 10"></path><path d="M 237.4 341.4 c -1.2 -1.5 -2.2 -2.7 -2.7 -3.3" style="fill: none; stroke: #263238; stroke-miterlimit: 10"></path><path d="M 230.2 352.4 l 18.8 4.2 s -4.9 -6.5 -9 -11.9" style="fill: none; stroke: #263238; stroke-miterlimit: 10"></path><path d="M 255.4 217.7 s -7.7 45.1 -8 65.8 s 8 32.6 19.4 36.4 s 21.3 -2.8 18.9 -6.1 s -11.8 3.3 -15.1 -8.5 s 8.5 -21.8 9 -45 s 0 -29.3 0 -29.3" style="fill: #263238; stroke: #263238; stroke-miterlimit: 10"></path></g><g id="freepik--speech-bubble--inject-29"><path transform="matrix(1,0,0,0.9,0,6.7)" d="M 235.7 84.8 C 235.7 75.3 230.9 66.5 223 61.3 C 215 56.1 205 55.3 196.3 59.2 C 192.6 51.9 185.9 46.7 178 44.7 C 170.1 42.8 161.7 44.4 155.1 49.2 C 152.3 41.8 146.6 36 139.4 33.1 C 132.1 30.2 123.9 30.4 116.9 33.8 C 108 24.8 94.3 22.9 83.3 29 C 72.3 35.2 66.8 47.9 69.8 60.2 C 56.9 64.9 47.5 76 45 89.5 C 42.5 103 47.2 116.8 57.5 125.8 C 53.6 137.7 58 150.7 68.4 157.7 C 78.7 164.7 92.4 164.1 102 156.1 C 107.7 170 120.9 179.4 136 180.2 C 151 180.9 165.1 173 172.2 159.7 C 185.1 165 199.9 161.1 208.5 150.2 C 217.1 139.2 217.4 123.9 209.2 112.7 C 224.1 111.9 235.7 99.7 235.7 84.8 Z" style="fill: #263238; stroke: #263238; stroke-miterlimit: 10"></path><ellipse cx="214.6" cy="161.6" rx="12.2" ry="9.3" transform="matrix(1,0,0,0.9,-51.3,112.7) rotate(-26)" style="fill: #263238; stroke: #263238; stroke-miterlimit: 10"></ellipse><path transform="matrix(1,0,0,0.9,0,11.7)" d="M 215.7 181.1 c 1.7 3.4 6.7 4.4 11.3 2.2 s 6.9 -6.8 5.2 -10.3 s -6.7 -4.4 -11.3 -2.2 S 214 177.6 215.7 181.1 Z" style="fill: #263238; stroke: #263238; stroke-miterlimit: 10"></path><path transform="matrix(1,0,0,0.9,0,6.3)" d="M 239 79.2 C 239 69.7 234.2 60.9 226.3 55.7 C 218.3 50.5 208.3 49.7 199.6 53.6 C 195.9 46.3 189.2 41.1 181.3 39.1 C 173.4 37.2 165 38.8 158.4 43.6 C 155.6 36.3 149.9 30.5 142.7 27.5 C 135.4 24.6 127.3 24.9 120.2 28.2 C 111.4 19.2 97.6 17.2 86.6 23.4 C 75.6 29.6 70 42.4 73.1 54.6 C 60.2 59.3 50.8 70.5 48.3 84 C 45.8 97.4 50.5 111.2 60.8 120.3 C 56.9 132.1 61.3 145.2 71.6 152.2 C 82 159.2 95.7 158.6 105.3 150.6 C 111 164.5 124.2 173.9 139.3 174.6 C 154.3 175.4 168.4 167.5 175.5 154.2 C 188.4 159.5 203.2 155.6 211.8 144.7 C 220.4 133.7 220.7 118.5 212.5 107.2 C 227.4 106.4 239 94.1 239 79.2 Z" style="fill: #ffffff; stroke: #263238; stroke-miterlimit: 10"></path><ellipse cx="217.7" cy="156" rx="12.2" ry="9.3" transform="matrix(1,0,0,0.9,-48.4,113.1) rotate(-26)" style="fill: #ffffff; stroke: #263238; stroke-miterlimit: 10"></ellipse><path transform="matrix(1,0,0,0.9,0,11.3)" d="M 219 175.5 c 1.7 3.4 6.7 4.4 11.3 2.2 s 6.9 -6.8 5.2 -10.3 s -6.7 -4.4 -11.3 -2.2 S 217.3 172.1 219 175.5 Z" style="fill: #ffffff; stroke: #263238; stroke-miterlimit: 10"></path></g><g id="freepik--light-bulb--inject-29"><path d="M 165.1 88 C 165.2 74.7 156.5 63 143.8 59.2 C 131 55.4 117.3 60.3 110 71.4 C 102.7 82.5 103.5 97 112 107.2 C 116.4 112.5 118.8 119.2 118.8 126.1 v 4.1 h 32.5 v -4.1 C 151.3 119.2 153.7 112.5 158.2 107.2 C 162.7 101.8 165.1 95 165.1 88 Z" style="fill: #7a92c6; stroke: #263238; stroke-miterlimit: 10"></path><circle cx="135" cy="90.1" r="19.1" style="fill: #ffffff; opacity: 0.44"></circle><rect x="118.8" y="130.3" width="25.5" height="8" style="fill: #7d7d7d; stroke: #263238; stroke-linecap: round; stroke-linejoin: round"></rect><path d="M 118.8 138.4 h 32.5 l 0 0 v 3.3 C 151.3 144.3 149.2 146.4 146.6 146.4 H 123.5 C 120.9 146.4 118.8 144.3 118.8 141.7 v -3.3 L 118.8 138.4 Z" style="fill: #7d7d7d; stroke: #263238; stroke-linecap: round; stroke-linejoin: round"></path><path d="M 122.9 146.4 h 24.3 l 0 0 v 1.6 C 147.2 151.6 144.3 154.4 140.8 154.4 H 129.3 C 125.8 154.4 122.9 151.6 122.9 148 v -1.6 L 122.9 146.4 Z" style="fill: #ffffff; stroke: #263238; stroke-linecap: round; stroke-linejoin: round"></path>

<!-- <line x1="170.52" y1="85.94" x2="184.3" y2="85.94" style="fill:none;stroke:#263238;stroke-linecap:round;stroke-linejoin:round"></line><line x1="86.78" y1="85.94" x2="100.73" y2="85.94" style="fill:none;stroke:#263238;stroke-linecap:round;stroke-linejoin:round"></line><line x1="135.54" y1="51" x2="135.54" y2="37.18" style="fill:none;stroke:#263238;stroke-linecap:round;stroke-linejoin:round"></line><line x1="160.51" y1="60.97" x2="170.02" y2="51.46" style="fill:none;stroke:#263238;stroke-linecap:round;stroke-linejoin:round"></line><line x1="101.06" y1="120.42" x2="110.71" y2="110.77" style="fill:none;stroke:#263238;stroke-linecap:round;stroke-linejoin:round"></line> -->


<!-- <line x1="110.3" y1="60.7" x2="101.06" y2="51.46" style="fill:none;stroke:#263238;stroke-linecap:round;stroke-linejoin:round"></line> -->


<!-- <line x1="170.02" y1="120.42" x2="160.82" y2="111.22" style="fill:none;stroke:#263238;stroke-linecap:round;stroke-linejoin:round"></line> -->


</g>
    <path d="M 25.6 7.2 S 68.3 71.7 68.3 71.7" fill="rgb(255, 255, 255)"/>
</svg>