<svg xmlns="http://www.w3.org/2000/svg" viewBox="0 0 500 500"><g id="freepik--background-simple--inject-29"><path d="M437.4,314.93s51.09-57.42,34.85-157.33-99.67-136.72-155-117.49-67.81,52.7-113,71.84-131.06,6-174,70.29,11.88,170.82,81.67,237.62S359.8,444.84,437.4,314.93Z" style="fill:#7A92C6"></path><path d="M437.4,314.93s51.09-57.42,34.85-157.33-99.67-136.72-155-117.49-67.81,52.7-113,71.84-131.06,6-174,70.29,11.88,170.82,81.67,237.62S359.8,444.84,437.4,314.93Z" style="fill:#fff;opacity:0.7000000000000001"></path></g><g id="freepik--Character--inject-29"><path d="M266.31,113.39s-10.16-2-19.07,12.11-8.37,33-7.84,51-.46,41.3-1,49.5-9.47,16.09-9.47,16.09l127.52,3a438.79,438.79,0,0,0-16.31-42.28C330.36,181,321.89,146,321.89,146s12.48,2.85,11.41-4.27-8.2-15.15-27.8-25.3S272.9,106.62,266.31,113.39Z" style="fill:#263238;stroke:#263238;stroke-miterlimit:10"></path><polygon points="218.79 476 223.81 439.4 374.35 428.18 387.05 476.29 218.79 476" style="fill:#263238;stroke:#263238;stroke-miterlimit:10"></polygon><path d="M366.05,386.54a228,228,0,0,1-9.9-23.22c2.65-6.39,11.55-22.67,11.55-22.67l5.28-9.51s-1-2.93-.75-10.71a87.35,87.35,0,0,0-.31-12s5.55-45.17,5.55-51.51,0-13.73-1.58-15.85-12.42-9.5-34.6-16.64-29.59-7.39-31.17-7.92-29.58,1.85-29.58,1.85-43.85,7.39-46,9.77S240.39,347,240.39,347s-3.29,8.51-4.07,14.89c-3.74,10.63-15.27,44.45-16.6,60.58-1.58,19.28-1.32,24.83-1.32,24.83s34.86,15.84,52,19.28,32.23,6.34,32.23,6.34l5.81-15.59,7.39,15.32s29.58-11.09,39.88-18.49,23.78-24.56,23.78-24.56S372.38,399.22,366.05,386.54Z" style="fill:#7A92C6;stroke:#263238;stroke-miterlimit:10"></path><path d="M360,244s-9.06,12-11,18.11" style="fill:none;stroke:#263238;stroke-miterlimit:10"></path><path d="M318.57,367.76s13.08,2.95,15.61,4.85,12.45,4.85,16.67,4.85a87.08,87.08,0,0,0,10.76-1l-6.75-7.6S328.7,365,324.69,365A8,8,0,0,0,318.57,367.76Z" style="fill:#263238;stroke:#263238;stroke-miterlimit:10"></path><path d="M306.81,438.48c.54,5.45.89,9,.89,9.37" style="fill:none;stroke:#263238;stroke-miterlimit:10"></path><path d="M300.12,373.52s4,38.5,6.2,60.09" style="fill:none;stroke:#263238;stroke-miterlimit:10"></path><path d="M306.83,310.3c.12,1,.25,1.91.38,2.62,1.06,5.54-.26,12.41-2.9,14.26s-5,10-4,11.09" style="fill:none;stroke:#263238;stroke-miterlimit:10"></path><path d="M305.63,290.73s.25,7.87.75,14.59" style="fill:none;stroke:#263238;stroke-miterlimit:10"></path><path d="M287.32,208.37s-3.55-.22-4.44.89-7.75,9.53-8,11.3-.67,29-.67,31.24,3.1,9.31,4.65,5.32,2.66-9.08,4.22-11.74,5.53,2.88,5.53,2.88l26.15,7.09s8.42-4.88,10-8,1.33,9.31,3.33,9.75,3.77-2.88,1.77-10.41-1.55-21.94-4.43-30.58-4.88-9.31-9.53-9.53S287.32,208.37,287.32,208.37Z" style="fill:#7A92C6;stroke:#263238;stroke-miterlimit:10"></path><path d="M283.77,192.26s1.78,21,1.78,24.59-.89,18.17,2.67,27.79,13.72,41.16,15.86,42.41,4.45-1.78,8.37-11.94S325.28,250,323.68,235s-8.56-44.72-8.56-44.72Z" style="fill:#fff;stroke:#263238;stroke-miterlimit:10"></path><polygon points="305.57 210.68 285.54 218.81 284.38 206.03 305.57 210.68" style="fill:#263238;stroke:#263238;stroke-miterlimit:10"></polygon><path d="M291.16,253c4.5,13.05,11.22,33.05,12.92,34,2.14,1.25,4.45-1.78,8.37-11.94,2.07-5.35,5.51-12,8.08-19.35A29.92,29.92,0,0,1,291.16,253Z" style="fill:#263238;stroke:#263238;stroke-miterlimit:10"></path><path d="M261.86,172s11.08,27.39,16,31.34,21.69,10.29,27.54,9.82,11.87-4.28,13.46-7.92,8.23-13,7.12-20.57-8.39-35.46-8.39-35.46S302.69,147,292.4,143.5s-16.14-13-16.14-13-1.9,18.36-6.33,28.33S261.86,172,261.86,172Z" style="fill:#fff;stroke:#263238;stroke-miterlimit:10"></path><path d="M300.28,164.42s1.52,8.28,4.35,10,3.93,2.62,2.84,4.58-4.36,3-5.23,3" style="fill:none;stroke:#263238;stroke-miterlimit:10"></path><path d="M291.34,186.21s6.54,6.32,13.08,5.23" style="fill:none;stroke:#263238;stroke-miterlimit:10"></path><path d="M275.4,165.46s7.21-4.2,12.7-2.08" style="fill:none;stroke:#263238;stroke-miterlimit:10"></path><path d="M300.84,163.09s-1.72-7.37,6.92-9.44" style="fill:none;stroke:#263238;stroke-miterlimit:10"></path><path d="M291.53,172c.64,1.76.29,3.51-.78,3.9s-2.47-.72-3.11-2.49-.29-3.5.79-3.89S290.89,170.22,291.53,172Z" style="fill:#263238"></path><path d="M311.24,165.19c.64,1.76.29,3.51-.79,3.9s-2.46-.72-3.1-2.48-.29-3.51.78-3.9S310.6,163.43,311.24,165.19Z" style="fill:#263238"></path><path d="M261.86,172l-4,11.29s4.27,6.24,6.77,7.31,5.34-1.25,5.34-1.25Z" style="fill:#fff;stroke:#263238;stroke-miterlimit:10"></path><path d="M260.73,339.06s53.09,8.72,65,8.72,22.45-.53,23.77-1.06,18-2.11,19.28.27.8,6.87.8,6.87a29.88,29.88,0,0,1,.79,7.92,12,12,0,0,1-2.11,6.07,3.72,3.72,0,0,1-.53,4c-1.59,2.11-1.85,4-4.76,4.49s-9.5-1.06-10.56-1.32-12.15-1.59-15.06-3.17a37.79,37.79,0,0,0-6.34-2.91,52.81,52.81,0,0,0-6.6-1.06S272.61,371,265,370.49s-12.41-.52-12.41-.52Z" style="fill:#fff;stroke:#263238;stroke-miterlimit:10"></path><path d="M335.63,328.28s4.29,18.75,8,24.28,11.78,13.74,19.1,10.89,9.28-2.14,10.53-15.71.89-23.56-1.07-27.31a43.46,43.46,0,0,0-5.36-7.5Z" style="fill:#7A92C6;stroke:#263238;stroke-miterlimit:10"></path><path d="M340.63,230.64s-10-8.74-15-12.67a169.23,169.23,0,0,1-15.17-13.92c-3.57-3.75-5.72-5.71-6.07-2.32s4.82,11.42,5.89,12.85,7.14,8.21,7.14,8.21-7.14,5-8.93,6.43-1.78,3-2.32,7.14,1.43,5.89,4.46,6.78a6.65,6.65,0,0,0,5.54-1.07s7.14,4.82,11.6,5.53,8.57,4.11,8.57,4.11-1.43,66-1.61,67.65,9.46,1.25,18.74-1.79,11.79-6.6,11.79-6.6-12-56.76-15-64.8S344,232.61,340.63,230.64Z" style="fill:#fff;stroke:#263238;stroke-miterlimit:10"></path><path d="M316.18,242.07l-4.64-3.75s-.18,1.61-1.07,2.14" style="fill:#fff;stroke:#263238;stroke-miterlimit:10"></path><path d="M331.53,315.08s.53,14.27,2.32,15.35,15.35-2.15,22.49-4.65,12.32-5.53,12.5-7.85-1.61-8-2.86-11.07-3-2.32-3.75-1.6-7.14,3-16.78,5.53S331.35,312.4,331.53,315.08Z" style="fill:#7A92C6;stroke:#263238;stroke-miterlimit:10"></path><path d="M243.84,285.12c-.33-3.63-.6-6.94-.81-9.71" style="fill:#7A92C6;stroke:#263238;stroke-miterlimit:10"></path><path d="M249.11,225.49s-27.21,1.59-28.27,6.08-4.22,40.14-5.28,75.27.79,60.75,3.17,61.54,29.58.79,29.58.79l3.44-30.63-2.91-4.49s-2.76-34.78-4.58-53.77" style="fill:#7A92C6;stroke:#263238;stroke-miterlimit:10"></path><path d="M246.2,332.73s-5.28,34.6-6.07,36.18-1.32,4.49,1.84,4.23,11.89,2.11,12.95-.27,9.51-28.26,8.71-32-4.49-5-5.81-5.54S247.79,331.4,246.2,332.73Z" style="fill:#7A92C6;stroke:#263238;stroke-miterlimit:10"></path><path d="M234.61,317.53c-1.19-1.52-2.16-2.72-2.67-3.29" style="fill:none;stroke:#263238;stroke-miterlimit:10"></path><path d="M227.45,328.5l18.75,4.23s-4.89-6.52-9-11.89" style="fill:none;stroke:#263238;stroke-miterlimit:10"></path><path d="M252.6,193.78s-7.74,45.06-8,65.78,8,32.65,19.4,36.44,21.3-2.84,18.93-6.15-11.83,3.31-15.14-8.52,8.52-21.77,9-45,0-29.34,0-29.34" style="fill:#263238;stroke:#263238;stroke-miterlimit:10"></path></g><g id="freepik--speech-bubble--inject-29"><path d="M233.49,86a28,28,0,0,0-39.41-25.6,28,28,0,0,0-41.23-10.05,28,28,0,0,0-38.19-15.4A28,28,0,0,0,67.57,61.37,38.85,38.85,0,0,0,55.29,127a28,28,0,0,0,44.49,30.29,38.86,38.86,0,0,0,70.22,3.6,31.1,31.1,0,0,0,37-47A28,28,0,0,0,233.49,86Z" style="fill:#263238;stroke:#263238;stroke-miterlimit:10"></path><ellipse cx="210.24" cy="165.5" rx="12.23" ry="9.25" transform="translate(-51.29 109) rotate(-26.02)" style="fill:#263238;stroke:#263238;stroke-miterlimit:10"></ellipse><path d="M213.45,187.59c1.68,3.44,6.73,4.43,11.28,2.21s6.87-6.81,5.19-10.25-6.73-4.43-11.28-2.21S211.77,184.15,213.45,187.59Z" style="fill:#263238;stroke:#263238;stroke-miterlimit:10"></path><path d="M236.8,80a28,28,0,0,0-39.41-25.6,28,28,0,0,0-41.24-10A28,28,0,0,0,118,29,28,28,0,0,0,70.88,55.42a38.86,38.86,0,0,0-12.29,65.66,28,28,0,0,0,44.5,30.29A38.86,38.86,0,0,0,173.3,155a31.1,31.1,0,0,0,37-47A28,28,0,0,0,236.8,80Z" style="fill:#fff;stroke:#263238;stroke-miterlimit:10"></path><ellipse cx="213.54" cy="159.55" rx="12.23" ry="9.25" transform="translate(-48.35 109.85) rotate(-26.02)" style="fill:#fff;stroke:#263238;stroke-miterlimit:10"></ellipse><path d="M216.76,181.64c1.68,3.44,6.73,4.43,11.27,2.22s6.87-6.81,5.19-10.26-6.72-4.43-11.27-2.21S215.08,178.2,216.76,181.64Z" style="fill:#fff;stroke:#263238;stroke-miterlimit:10"></path></g><g id="freepik--light-bulb--inject-29"><path d="M166.26,85.78A30.07,30.07,0,1,0,113.08,105a29.54,29.54,0,0,1,6.85,18.92v4.12h32.51v-4.12a29.45,29.45,0,0,1,6.84-18.9A30,30,0,0,0,166.26,85.78Z" style="fill:#7A92C6;stroke:#263238;stroke-miterlimit:10"></path><circle cx="136.16" cy="87.84" r="19.07" style="fill:#fff;opacity:0.44"></circle><rect x="119.93" y="128.07" width="32.51" height="8.04" style="fill:#7d7d7d;stroke:#263238;stroke-linecap:round;stroke-linejoin:round"></rect><path d="M119.93,136.13h32.51a0,0,0,0,1,0,0v3.32a4.73,4.73,0,0,1-4.73,4.73H124.66a4.73,4.73,0,0,1-4.73-4.73v-3.32A0,0,0,0,1,119.93,136.13Z" style="fill:#7d7d7d;stroke:#263238;stroke-linecap:round;stroke-linejoin:round"></path><path d="M124,144.16h24.3a0,0,0,0,1,0,0v1.63a6.41,6.41,0,0,1-6.41,6.41H130.44a6.41,6.41,0,0,1-6.41-6.41v-1.63A0,0,0,0,1,124,144.16Z" style="fill:#fff;stroke:#263238;stroke-linecap:round;stroke-linejoin:round"></path><line x1="170.52" y1="85.94" x2="184.3" y2="85.94" style="fill:none;stroke:#263238;stroke-linecap:round;stroke-linejoin:round"></line><line x1="86.78" y1="85.94" x2="100.73" y2="85.94" style="fill:none;stroke:#263238;stroke-linecap:round;stroke-linejoin:round"></line><line x1="135.54" y1="51" x2="135.54" y2="37.18" style="fill:none;stroke:#263238;stroke-linecap:round;stroke-linejoin:round"></line><line x1="160.51" y1="60.97" x2="170.02" y2="51.46" style="fill:none;stroke:#263238;stroke-linecap:round;stroke-linejoin:round"></line><line x1="101.06" y1="120.42" x2="110.71" y2="110.77" style="fill:none;stroke:#263238;stroke-linecap:round;stroke-linejoin:round"></line><line x1="110.3" y1="60.7" x2="101.06" y2="51.46" style="fill:none;stroke:#263238;stroke-linecap:round;stroke-linejoin:round"></line><line x1="170.02" y1="120.42" x2="160.82" y2="111.22" style="fill:none;stroke:#263238;stroke-linecap:round;stroke-linejoin:round"></line></g></svg>